<svg width="16" height="16" viewBox="0 0 16 16" fill="none" xmlns="http://www.w3.org/2000/svg">
<g clip-path="url(#clip0_128_77)">
<path fill-rule="evenodd" clip-rule="evenodd" d="M8.47134 9.69069C8.34632 9.81567 8.17678 9.88588 8 9.88588C7.82323 9.88588 7.65369 9.81567 7.52867 9.69069L5.64267 7.80469C5.54942 7.71141 5.48594 7.59258 5.46025 7.46321C5.43456 7.33385 5.44782 7.19977 5.49835 7.07794C5.54888 6.95612 5.63441 6.85201 5.74411 6.77881C5.85382 6.7056 5.98278 6.66658 6.11467 6.66669H9.88534C10.0172 6.66658 10.1462 6.7056 10.2559 6.77881C10.3656 6.85201 10.4511 6.95612 10.5017 7.07794C10.5522 7.19977 10.5654 7.33385 10.5398 7.46321C10.5141 7.59258 10.4506 7.71141 10.3573 7.80469L8.47134 9.69069Z" fill="white"/>
</g>
<defs>
<clipPath id="clip0_128_77">
<rect width="16" height="16" fill="white"/>
</clipPath>
</defs>
</svg>
