<svg width="14" height="14" viewBox="0 0 14 14" fill="none" xmlns="http://www.w3.org/2000/svg">
<path fill-rule="evenodd" clip-rule="evenodd" d="M1.25 7C1.25 3.82436 3.82436 1.25 7 1.25C10.1756 1.25 12.75 3.82436 12.75 7C12.75 10.1756 10.1756 12.75 7 12.75C3.82436 12.75 1.25 10.1756 1.25 7ZM7 0C3.13401 0 0 3.13401 0 7C0 10.866 3.13401 14 7 14C10.866 14 14 10.866 14 7C14 3.13401 10.866 0 7 0ZM5.5 3.5C5.5 3.08579 5.16421 2.75 4.75 2.75C4.33579 2.75 4 3.08579 4 3.5V4H3.5C3.08579 4 2.75 4.33579 2.75 4.75C2.75 5.16421 3.08579 5.5 3.5 5.5H4V6C4 6.41421 4.33579 6.75 4.75 6.75C5.16421 6.75 5.5 6.41421 5.5 6V5.5H6C6.41421 5.5 6.75 5.16421 6.75 4.75C6.75 4.33579 6.41421 4 6 4H5.5V3.5ZM3.66391 8.68659C3.57171 8.39658 3.80776 8.125 4.11207 8.125H9.88796C10.1923 8.125 10.4283 8.39658 10.3361 8.68659C9.88657 10.1006 8.56293 11.125 7.00002 11.125C5.43711 11.125 4.11346 10.1006 3.66391 8.68659ZM10 3.5C10 3.08579 9.66421 2.75 9.25 2.75C8.83579 2.75 8.5 3.08579 8.5 3.5V4H8C7.58579 4 7.25 4.33579 7.25 4.75C7.25 5.16421 7.58579 5.5 8 5.5H8.5V6C8.5 6.41421 8.83579 6.75 9.25 6.75C9.66421 6.75 10 6.41421 10 6V5.5H10.5C10.9142 5.5 11.25 5.16421 11.25 4.75C11.25 4.33579 10.9142 4 10.5 4H10V3.5Z" fill="white"/>
</svg>
