<svg width="14" height="14" viewBox="0 0 14 14" fill="none" xmlns="http://www.w3.org/2000/svg">
<g clip-path="url(#clip0_24_67)">
<path fill-rule="evenodd" clip-rule="evenodd" d="M1.25 7C1.25 3.82436 3.82436 1.25 7 1.25C10.1756 1.25 12.75 3.82436 12.75 7C12.75 10.1756 10.1756 12.75 7 12.75C3.82436 12.75 1.25 10.1756 1.25 7ZM7 0C3.13401 0 0 3.13401 0 7C0 10.866 3.13401 14 7 14C10.866 14 14 10.866 14 7C14 3.13401 10.866 0 7 0ZM3.75 5.25C3.75 5.80228 4.19772 6.25 4.75 6.25C5.30228 6.25 5.75 5.80228 5.75 5.25C5.75 4.69772 5.30228 4.25 4.75 4.25C4.19772 4.25 3.75 4.69772 3.75 5.25ZM9.25 4.25C9.80229 4.25 10.25 4.69772 10.25 5.25C10.25 5.80228 9.80229 6.25 9.25 6.25C8.69771 6.25 8.25 5.80228 8.25 5.25C8.25 4.69772 8.69771 4.25 9.25 4.25ZM9.92872 7.76582C10.3395 7.81889 10.6295 8.19493 10.5765 8.60573C10.5317 8.95227 10.361 9.27202 10.1825 9.52127C9.99546 9.78249 9.75387 10.0305 9.48728 10.2345C9.2207 10.4385 8.91812 10.6068 8.61707 10.7191C8.32983 10.8262 7.97657 10.9073 7.63038 10.8599C7.21999 10.8037 6.93286 10.4255 6.98905 10.0151C7.04524 9.60474 7.42347 9.31761 7.83385 9.3738C7.83734 9.37393 7.85835 9.37462 7.90057 9.36762C7.95054 9.35934 8.01574 9.3424 8.09305 9.31357C8.2495 9.25524 8.42225 9.1607 8.57577 9.04324C8.72929 8.92577 8.86571 8.78375 8.96292 8.648C9.01095 8.58091 9.04435 8.52241 9.06541 8.47634C9.08495 8.43359 9.08884 8.4126 9.08893 8.41261C9.14199 8.00181 9.51792 7.71276 9.92872 7.76582Z" fill="white"/>
</g>
<defs>
<clipPath id="clip0_24_67">
<rect width="14" height="14" fill="white"/>
</clipPath>
</defs>
</svg>
