<svg width="16" height="16" viewBox="0 0 16 16" fill="none" xmlns="http://www.w3.org/2000/svg">
<g clip-path="url(#clip0_127_55)">
<path fill-rule="evenodd" clip-rule="evenodd" d="M8.04 3.95999C8.22727 4.14749 8.33246 4.40166 8.33246 4.66666C8.33246 4.93166 8.22727 5.18582 8.04 5.37332L5.41467 7.99999L8.04134 10.6267C8.22341 10.8153 8.32409 11.068 8.32168 11.3302C8.31928 11.5924 8.214 11.8432 8.0285 12.0285C7.843 12.2138 7.59214 12.3188 7.32994 12.321C7.06774 12.3232 6.81519 12.2222 6.62667 12.04L3.29334 8.70666C3.10607 8.51916 3.00089 8.26499 3.00089 7.99999C3.00089 7.73499 3.10607 7.48082 3.29334 7.29332L6.62667 3.95999C6.71954 3.86706 6.82981 3.79335 6.95117 3.74305C7.07254 3.69276 7.20263 3.66687 7.33401 3.66687C7.46538 3.66687 7.59547 3.69276 7.71684 3.74305C7.8382 3.79335 7.94847 3.86706 8.04134 3.95999H8.04ZM12.04 3.95999C12.2273 4.14749 12.3325 4.40166 12.3325 4.66666C12.3325 4.93166 12.2273 5.18582 12.04 5.37332L9.41467 7.99999L12.0413 10.6267C12.2234 10.8153 12.3241 11.068 12.3217 11.3302C12.3193 11.5924 12.214 11.8432 12.0285 12.0285C11.843 12.2138 11.5921 12.3188 11.3299 12.321C11.0677 12.3232 10.8152 12.2222 10.6267 12.04L7.29334 8.70666C7.10607 8.51916 7.00088 8.26499 7.00088 7.99999C7.00088 7.73499 7.10607 7.48082 7.29334 7.29332L10.6267 3.95999C10.7195 3.86706 10.8298 3.79335 10.9512 3.74305C11.0725 3.69276 11.2026 3.66687 11.334 3.66687C11.4654 3.66687 11.5955 3.69276 11.7168 3.74305C11.8382 3.79335 11.9485 3.86706 12.0413 3.95999H12.04Z" fill="white"/>
</g>
<defs>
<clipPath id="clip0_127_55">
<rect width="16" height="16" fill="white"/>
</clipPath>
</defs>
</svg>
