<svg width="16" height="16" viewBox="0 0 16 16" fill="none" xmlns="http://www.w3.org/2000/svg">
<g clip-path="url(#clip0_127_23)">
<path fill-rule="evenodd" clip-rule="evenodd" d="M3.96 3.96C4.1475 3.77273 4.40167 3.66754 4.66667 3.66754C4.93167 3.66754 5.18583 3.77273 5.37333 3.96L8.70667 7.29333C8.89394 7.48083 8.99912 7.73499 8.99912 8C8.99912 8.265 8.89394 8.51916 8.70667 8.70666L5.37333 12.04C5.18377 12.2166 4.93304 12.3128 4.67397 12.3082C4.4149 12.3037 4.16772 12.1987 3.9845 12.0155C3.80129 11.8323 3.69634 11.5851 3.69177 11.326C3.6872 11.067 3.78336 10.8162 3.96 10.6267L6.58533 8L3.95867 5.37333C3.7714 5.18583 3.66621 4.93166 3.66621 4.66666C3.66621 4.40166 3.7714 4.1475 3.95867 3.96H3.96ZM7.96 3.96C8.1475 3.77273 8.40167 3.66754 8.66667 3.66754C8.93167 3.66754 9.18583 3.77273 9.37333 3.96L12.7067 7.29333C12.8939 7.48083 12.9991 7.73499 12.9991 8C12.9991 8.265 12.8939 8.51916 12.7067 8.70666L9.37333 12.04C9.18377 12.2166 8.93304 12.3128 8.67397 12.3082C8.4149 12.3037 8.16772 12.1987 7.9845 12.0155C7.80129 11.8323 7.69634 11.5851 7.69177 11.326C7.6872 11.067 7.78336 10.8162 7.96 10.6267L10.5853 8L7.95867 5.37333C7.7714 5.18583 7.66621 4.93166 7.66621 4.66666C7.66621 4.40166 7.7714 4.1475 7.95867 3.96H7.96Z" fill="black"/>
</g>
<defs>
<clipPath id="clip0_127_23">
<rect width="16" height="16" fill="white"/>
</clipPath>
</defs>
</svg>
