<svg width="16" height="16" viewBox="0 0 16 16" fill="none" xmlns="http://www.w3.org/2000/svg">
<g clip-path="url(#clip0_127_33)">
<path fill-rule="evenodd" clip-rule="evenodd" d="M10.7067 7.29336C10.8939 7.48086 10.9991 7.73502 10.9991 8.00002C10.9991 8.26502 10.8939 8.51919 10.7067 8.70669L6.936 12.4787C6.7484 12.6662 6.494 12.7715 6.22876 12.7714C5.96352 12.7714 5.70917 12.666 5.52166 12.4784C5.33416 12.2908 5.22885 12.0364 5.22891 11.7711C5.22897 11.5059 5.3344 11.2515 5.522 11.064L8.586 8.00002L5.522 4.93602C5.33975 4.74751 5.23883 4.49495 5.24099 4.23275C5.24314 3.97055 5.34819 3.71969 5.53351 3.53419C5.71883 3.3487 5.9696 3.24341 6.2318 3.24101C6.49399 3.23861 6.74664 3.33928 6.93533 3.52136L10.7067 7.29336Z" fill="black"/>
</g>
<defs>
<clipPath id="clip0_127_33">
<rect width="16" height="16" fill="white"/>
</clipPath>
</defs>
</svg>
